<?xml version="1.0" encoding="UTF-8" standalone="no"?><!DOCTYPE svg PUBLIC "-//W3C//DTD SVG 1.1//EN" "http://www.w3.org/Graphics/SVG/1.1/DTD/svg11.dtd"><svg width="100%" height="100%" viewBox="0 0 537 537" version="1.1" xmlns="http://www.w3.org/2000/svg" xmlns:xlink="http://www.w3.org/1999/xlink" xml:space="preserve" xmlns:serif="http://www.serif.com/" style="fill-rule:evenodd;clip-rule:evenodd;stroke-linejoin:round;stroke-miterlimit:2;"><path d="M496.785,152.779c-3.305,-25.085 -16.549,-51.934 -38.826,-74.205c-22.264,-22.265 -49.107,-35.508 -74.186,-38.813c-11.348,-1.499 -26.5,-7.766 -35.582,-14.737c-20.08,-15.398 -48.427,-25.024 -79.921,-25.024c-31.494,0 -59.841,9.626 -79.921,25.024c-9.082,6.965 -24.235,13.238 -35.582,14.737c-25.08,3.305 -51.922,16.549 -74.187,38.813c-22.277,22.271 -35.521,49.119 -38.825,74.205c-1.493,11.347 -7.766,26.494 -14.731,35.57c-15.403,20.073 -25.024,48.427 -25.024,79.921c0,31.494 9.621,59.847 25.024,79.921c6.971,9.082 13.238,24.223 14.731,35.568c3.305,25.086 16.548,51.936 38.825,74.205c22.265,22.266 49.107,35.51 74.187,38.814c11.347,1.498 26.5,7.771 35.582,14.736c20.073,15.398 48.421,25.025 79.921,25.025c31.5,0 59.841,-9.627 79.921,-25.025c9.082,-6.965 24.234,-13.238 35.582,-14.736c25.078,-3.305 51.922,-16.549 74.186,-38.814c22.277,-22.27 35.521,-49.119 38.826,-74.205c1.492,-11.346 7.766,-26.492 14.73,-35.568c15.404,-20.074 25.025,-48.422 25.025,-79.921c0,-31.494 -9.621,-59.848 -25.025,-79.921c-6.97,-9.076 -13.238,-24.223 -14.73,-35.57Zm-57.529,27.651l-192.779,192.779l-30.845,30.846c-8.519,8.52 -22.326,8.52 -30.845,0l-30.845,-30.846l-56.665,-56.658c-8.519,-8.52 -8.519,-22.326 0,-30.846l30.845,-30.844c8.519,-8.519 22.326,-8.519 30.845,0l41.237,41.236l177.357,-177.357c8.52,-8.519 22.326,-8.519 30.846,0l30.844,30.845c8.524,8.519 8.524,22.332 0.005,30.845Z" style="fill:#fff;fill-rule:nonzero;"/></svg>