<?xml version="1.0" encoding="iso-8859-1"?>
<!-- Generator: Adobe Illustrator 19.0.0, SVG Export Plug-In . SVG Version: 6.00 Build 0)  -->
<svg version="1.1" id="Capa_1" xmlns="http://www.w3.org/2000/svg" xmlns:xlink="http://www.w3.org/1999/xlink" x="0px" y="0px"
	 viewBox="0 0 511.999 511.999" style="enable-background:new 0 0 511.999 511.999;" xml:space="preserve">
<g>
	<g>
		<path d="M507.834,322.411l-20.305-11.424c-0.905-0.824-1.992-1.448-3.198-1.8l-105.78-59.517v-65.129l9.61,5.408
			c1.267,0.712,2.642,1.051,3.999,1.051c2.855,0,5.629-1.499,7.128-4.165c2.213-3.933,0.818-8.914-3.114-11.127L374.297,163.4
			c-0.034-0.02-110.128-61.964-110.128-61.964V49.022h16.34c4.512,0,8.17-3.657,8.17-8.17c0-4.513-3.658-8.17-8.17-8.17h-16.34
			V8.171c0-4.513-3.658-8.17-8.17-8.17s-8.17,3.657-8.17,8.17v24.51h-16.34c-4.512,0-8.17,3.657-8.17,8.17
			c0,4.513,3.658,8.17,8.17,8.17h16.34v52.413l-110.095,61.945c-0.034,0.02-21.911,12.328-21.911,12.328
			c-3.933,2.213-5.327,7.194-3.115,11.127c2.214,3.933,7.195,5.327,11.127,3.113l9.61-5.408v65.129l-105.78,59.517
			c-1.206,0.352-2.293,0.976-3.198,1.8L4.165,322.411c-3.933,2.212-5.327,7.194-3.115,11.127c1.5,2.666,4.272,4.165,7.128,4.165
			c1.357,0,2.732-0.339,3.999-1.051l9.61-5.408v172.584c0,4.513,3.658,8.17,8.17,8.17H482.04c4.512,0,8.17-3.657,8.17-8.17V331.245
			l9.61,5.408c1.267,0.712,2.642,1.051,3.999,1.051c2.855,0,5.629-1.499,7.128-4.165
			C513.161,329.605,511.767,324.624,507.834,322.411z M133.447,495.658H38.128V457.53h95.319V495.658z M133.447,441.19H38.128
			V322.05l95.319-53.631V441.19z M247.829,495.658h-32.681v-95.319c0-19.728,14.057-36.233,32.681-40.028V495.658z M296.85,495.658
			h-32.681V360.311c18.624,3.795,32.681,20.3,32.681,40.028V495.658z M473.87,495.658h-95.319V457.53h95.319V495.658z
			 M473.87,441.19h-95.319v-72.948c0-4.513-3.658-8.17-8.17-8.17s-8.17,3.657-8.17,8.17v127.415H313.19v-95.319
			c0-31.535-25.655-57.191-57.191-57.191c-31.536,0-57.191,25.656-57.191,57.191v95.319h-49.021V254.367c0-0.024,0-0.048,0-0.073
			v-78.946l106.212-59.76l106.212,59.76v78.946c0,0.024,0,0.048,0,0.073v81.196c0,4.513,3.658,8.17,8.17,8.17s8.17-3.657,8.17-8.17
			v-67.143l95.319,53.631V441.19z"/>
	</g>
</g>
<g>
	<g>
		<path d="M255.999,187.915c-22.526,0-40.851,18.325-40.851,40.851c0,22.526,18.325,40.851,40.851,40.851
			c22.526,0,40.851-18.325,40.851-40.851C296.85,206.24,278.525,187.915,255.999,187.915z M255.999,253.276
			c-13.516,0-24.51-10.996-24.51-24.51c0-13.515,10.995-24.51,24.51-24.51s24.51,10.996,24.51,24.51
			C280.51,242.28,269.515,253.276,255.999,253.276z"/>
	</g>
</g>
<g>
	<g>
		<path d="M85.788,343.148c-4.512,0-8.17,3.657-8.17,8.17v43.574c0,4.513,3.658,8.17,8.17,8.17s8.17-3.657,8.17-8.17v-43.574
			C93.958,346.805,90.3,343.148,85.788,343.148z"/>
	</g>
</g>
<g>
	<g>
		<path d="M426.211,343.148c-4.512,0-8.17,3.657-8.17,8.17v43.574c0,4.513,3.658,8.17,8.17,8.17c4.512,0,8.17-3.657,8.17-8.17
			v-43.574C434.381,346.805,430.723,343.148,426.211,343.148z"/>
	</g>
</g>
<g>
</g>
<g>
</g>
<g>
</g>
<g>
</g>
<g>
</g>
<g>
</g>
<g>
</g>
<g>
</g>
<g>
</g>
<g>
</g>
<g>
</g>
<g>
</g>
<g>
</g>
<g>
</g>
<g>
</g>
</svg>
