<?xml version="1.0" encoding="iso-8859-1"?>
<!-- Generator: Adobe Illustrator 19.0.0, SVG Export Plug-In . SVG Version: 6.00 Build 0)  -->
<svg version="1.1" id="Capa_1" xmlns="http://www.w3.org/2000/svg" xmlns:xlink="http://www.w3.org/1999/xlink" x="0px" y="0px"
	 viewBox="0 0 511.998 511.998" style="enable-background:new 0 0 511.998 511.998;" xml:space="preserve">
<path style="fill:#924630;" d="M280.51,36.767h-16.34v-24.51c0-4.513-3.658-8.17-8.17-8.17s-8.17,3.657-8.17,8.17v24.51h-16.34
	c-4.512,0-8.17,3.657-8.17,8.17s3.658,8.17,8.17,8.17h16.34v78.978h16.34V53.107h16.34c4.512,0,8.17-3.657,8.17-8.17
	S285.022,36.767,280.51,36.767z"/>
<polygon style="fill:#A86B5A;" points="29.958,453.445 29.958,507.913 108.936,507.913 130.723,435.563 "/>
<g>
	<polygon style="fill:#924630;" points="174.298,420.764 108.936,420.764 108.936,507.913 141.617,507.913 	"/>
	<polygon style="fill:#924630;" points="482.04,453.445 416.679,420.764 449.36,507.913 482.04,507.913 	"/>
</g>
<polygon style="fill:#A86B5A;" points="337.701,420.764 370.382,507.913 449.36,507.913 449.36,420.764 "/>
<polygon style="fill:#FFEBC2;" points="29.958,321.361 29.958,453.445 108.936,453.445 119.83,365.185 108.936,276.925 "/>
<g>
	<polygon style="fill:#FFDB92;" points="141.617,258.537 108.936,276.925 108.936,453.445 174.298,453.445 	"/>
	<polygon style="fill:#FFDB92;" points="482.04,321.361 449.36,302.973 416.679,378.21 449.36,453.445 482.04,453.445 	"/>
</g>
<polygon style="fill:#FFEBC2;" points="370.382,258.537 337.701,453.445 449.36,453.445 449.36,302.973 "/>
<g>
	<path style="fill:#DF3333;" d="M503.82,341.787c-1.357,0-2.732-0.339-3.999-1.051L355.48,259.522
		c-3.933-2.212-5.327-7.194-3.114-11.127c2.214-3.931,7.194-5.326,11.127-3.113l144.341,81.214
		c3.933,2.212,5.327,7.194,3.114,11.127C509.449,340.288,506.676,341.787,503.82,341.787z"/>
	<path style="fill:#DF3333;" d="M8.179,341.787c-2.855,0-5.629-1.499-7.128-4.165c-2.212-3.933-0.818-8.914,3.114-11.127
		l144.341-81.214c3.931-2.212,8.914-0.819,11.127,3.113c2.212,3.933,0.818,8.914-3.114,11.127L12.178,340.736
		C10.911,341.449,9.536,341.787,8.179,341.787z"/>
</g>
<g>
	<path style="fill:#FFFFFF;" d="M85.788,407.147c-4.512,0-8.17-3.657-8.17-8.17v-43.574c0-4.513,3.658-8.17,8.17-8.17
		c4.512,0,8.17,3.657,8.17,8.17v43.574C93.958,403.49,90.3,407.147,85.788,407.147z"/>
	<path style="fill:#FFFFFF;" d="M426.211,407.147c-4.512,0-8.17-3.657-8.17-8.17v-43.574c0-4.513,3.658-8.17,8.17-8.17
		c4.512,0,8.17,3.657,8.17,8.17v43.574C434.381,403.49,430.723,407.147,426.211,407.147z"/>
</g>
<polygon style="fill:#E8A44D;" points="337.701,156.27 305.02,332.091 337.701,507.913 370.382,507.913 370.382,174.657 "/>
<polygon style="fill:#FFCB61;" points="255.999,110.298 141.617,174.657 141.617,507.913 206.978,507.913 255.999,453.445 
	305.02,507.913 337.701,507.913 337.701,156.27 "/>
<circle style="fill:#FFFFFF;" cx="255.998" cy="232.849" r="32.681"/>
<path style="fill:#924630;" d="M305.02,404.424v103.489h-49.021l-21.787-76.255l21.787-76.255
	C283.07,355.403,305.02,377.353,305.02,404.424z"/>
<path style="fill:#A86B5A;" d="M255.999,355.403v152.51h-49.021V404.424C206.978,377.353,228.929,355.403,255.999,355.403z"/>
<path style="fill:#DF3333;" d="M392.161,195.085c-1.357,0-2.732-0.339-3.999-1.051l-132.163-74.362l-132.163,74.362
	c-3.931,2.212-8.914,0.819-11.127-3.113s-0.818-8.914,3.114-11.127l136.169-76.615c2.487-1.4,5.525-1.4,8.012,0l136.169,76.615
	c3.933,2.212,5.327,7.194,3.114,11.127C397.79,193.586,395.017,195.085,392.161,195.085z"/>
<g>
</g>
<g>
</g>
<g>
</g>
<g>
</g>
<g>
</g>
<g>
</g>
<g>
</g>
<g>
</g>
<g>
</g>
<g>
</g>
<g>
</g>
<g>
</g>
<g>
</g>
<g>
</g>
<g>
</g>
</svg>
