<svg height='300px' width='300px'  fill="#000000" xmlns="http://www.w3.org/2000/svg" xmlns:xlink="http://www.w3.org/1999/xlink" viewBox="0 0 100 100" version="1.1" x="0px" y="0px"><title>tool-8 copy</title><desc>Created with Sketch.</desc><g stroke="none" stroke-width="1" fill="none" fill-rule="evenodd"><path d="M20.4032632,77.7684211 C20.4032632,79.4935789 18.896,80.8918947 17.1717895,80.8918947 C15.4466316,80.8918947 13.9393684,79.4935789 13.9393684,77.7684211 C13.9393684,73.8330526 17.1717895,71.1169474 17.1717895,71.1169474 C17.1717895,71.1169474 20.4032632,73.8955789 20.4032632,77.7684211 M87.2391579,76.3606316 C87.2391579,77.7201053 86.0511579,78.8228421 84.6916842,78.8228421 C83.3322105,78.8228421 82.1442105,77.7201053 82.1442105,76.3606316 C82.1442105,73.258 84.6916842,71.1169474 84.6916842,71.1169474 C84.6916842,71.1169474 87.2391579,73.3072632 87.2391579,76.3606316 M79.1581053,88.6091579 C79.1581053,91.3281053 76.7821053,93.5326316 74.0631579,93.5326316 C71.3432632,93.5326316 68.9672632,91.3281053 68.9672632,88.6091579 C68.9672632,82.4038947 74.0631579,78.1217895 74.0631579,78.1217895 C74.0631579,78.1217895 79.1581053,82.5024211 79.1581053,88.6091579 M60.2078947,81.6043158 C60.2078947,84.3232632 57.8318947,86.5277895 55.112,86.5277895 C52.3930526,86.5277895 50.0170526,84.3232632 50.0170526,81.6043158 C50.0170526,75.3990526 55.112,71.1169474 55.112,71.1169474 C55.112,71.1169474 60.2078947,75.4975789 60.2078947,81.6043158 M40.2477895,86.3638947 C40.2477895,89.5764211 37.4407368,92.1807368 34.2282105,92.1807368 C31.0147368,92.1807368 28.2086316,89.5764211 28.2086316,86.3638947 C28.2086316,79.0322105 34.2282105,73.9742105 34.2282105,73.9742105 C34.2282105,73.9742105 40.2477895,79.1496842 40.2477895,86.3638947 M66.6225263,35.7204211 C64.7562105,37.5876842 62.3053684,38.5198947 59.8526316,38.5198947 C57.4008421,38.5198947 54.9490526,37.5876842 53.0827368,35.7204211 C52.1581053,34.7948421 52.1581053,33.2961053 53.0827368,32.3714737 C54.0083158,31.4458947 55.5070526,31.4458947 56.4316842,32.3714737 C58.3197895,34.2567368 61.3864211,34.2576842 63.2735789,32.3714737 C64.1991579,31.4458947 65.6978947,31.4458947 66.6225263,32.3714737 C67.5481053,33.2961053 67.5481053,34.7948421 66.6225263,35.7204211 M59.9113684,54.394 C59.4594737,54.8004211 58.8938947,55.0003158 58.3302105,55.0003158 C57.6812632,55.0003158 57.0342105,54.7341053 56.5671579,54.214 C54.6487368,52.0767368 52.0150526,50.8148421 49.1483158,50.6594737 C46.2863158,50.4974737 43.5247368,51.4742105 41.3893684,53.3907368 C40.4164211,54.2651579 38.9176842,54.1836842 38.0451579,53.2107368 C37.1707368,52.2368421 37.2522105,50.74 38.2261053,49.8665263 C41.3050526,47.104 45.2697895,45.7142105 49.4041053,45.9283158 C53.5346316,46.1528421 57.3307368,47.9717895 60.0923158,51.0497895 C60.9657895,52.0236842 60.8852632,53.5205263 59.9113684,54.394 M30.3269474,35.7204211 C29.4013684,34.7948421 29.4013684,33.2951579 30.3269474,32.3714737 C31.2515789,31.4458947 32.7522105,31.4458947 33.6758947,32.3714737 C34.5901053,33.2856842 35.8036842,33.7887368 37.0958947,33.7887368 C38.3881053,33.7887368 39.6026316,33.2856842 40.5168421,32.3714737 C41.4395789,31.4458947 42.9402105,31.4458947 43.8657895,32.3714737 C44.7904211,33.2951579 44.7904211,34.7948421 43.8657895,35.7204211 C42.0572632,37.5289474 39.6528421,38.5255789 37.0958947,38.5255789 C34.5389474,38.5255789 32.1345263,37.5289474 30.3269474,35.7204211 M27.4848421,67.1844211 C25.7236842,67.1844211 24.1861053,65.7576842 24.1861053,63.9965263 C24.1861053,59.9796842 27.4848421,57.2067368 27.4848421,57.2067368 C27.4848421,57.2067368 30.7835789,60.0431579 30.7835789,63.9965263 C30.7835789,65.7576842 29.2450526,67.1844211 27.4848421,67.1844211 M75.9588421,55.1594737 C74.1986316,55.1594737 72.6601053,53.7327368 72.6601053,51.9715789 C72.6601053,47.9547368 75.9588421,45.1817895 75.9588421,45.1817895 C75.9588421,45.1817895 79.2575789,48.0182105 79.2575789,51.9715789 C79.2575789,53.7327368 77.72,55.1594737 75.9588421,55.1594737 M78.0572632,33.2847368 C77.6148421,33.2847368 77.1724211,33.3017895 76.7318947,33.3358947 C76.8294737,32.4643158 76.8777895,31.5861053 76.8777895,30.7078947 C76.8777895,17.6351579 66.2435789,7 53.1708421,7 C44.9988421,7 37.5629474,11.1163158 33.2230526,17.8947368 C31.6807368,17.2031579 30.0105263,16.8450526 28.2901053,16.8450526 C21.5884211,16.8450526 16.1353684,22.2981053 16.1353684,28.9997895 C16.1353684,29.4583158 16.1618947,29.9149474 16.2130526,30.3696842 C9.428,33.4884211 5,40.2838947 5,47.8846316 C5,57.0163158 11.3862105,64.6682105 19.9229474,66.6529474 C21.0332632,69.7176842 23.9994737,71.9212632 27.4848421,71.9212632 C28.3393684,71.9212632 29.1616842,71.7867368 29.9347368,71.5413684 C31.8597895,70.9322105 33.4665263,69.6238947 34.4555789,67.9224211 C34.5976842,67.6789474 34.7284211,67.4278947 34.844,67.1683158 L78.0572632,67.1683158 C87.4002105,67.1683158 95,59.5685263 95,50.2265263 C95,40.8845263 87.4002105,33.2847368 78.0572632,33.2847368" fill="#000000"></path></g></svg>